<svg xmlns="http://www.w3.org/2000/svg" xmlns:xlink="http://www.w3.org/1999/xlink" width="1801" zoomAndPan="magnify" viewBox="0 0 1350.75 500.249999" height="667" preserveAspectRatio="xMidYMid meet" version="1.0"><defs><g/><clipPath id="72b1d43352"><path d="M 605.597656 0 L 1349.230469 0 L 1349.230469 466.550781 L 605.597656 466.550781 Z M 605.597656 0 " clip-rule="nonzero"/></clipPath><clipPath id="15b1cd3a1c"><path d="M 0.738281 158 L 667 158 L 667 466.550781 L 0.738281 466.550781 Z M 0.738281 158 " clip-rule="nonzero"/></clipPath><clipPath id="cc0e2575cd"><path d="M 279 0 L 744.230469 0 L 744.230469 242 L 279 242 Z M 279 0 " clip-rule="nonzero"/></clipPath><clipPath id="28953e1226"><rect x="0" width="745" y="0" height="467"/></clipPath><clipPath id="9d9c1b1931"><rect x="0" width="950" y="0" height="224"/></clipPath></defs><g clip-path="url(#72b1d43352)"><g transform="matrix(1, 0, 0, 1, 605, 0.000000000000071579)"><g clip-path="url(#28953e1226)"><g clip-path="url(#15b1cd3a1c)"><path fill="#102a43" d="M 511.949219 433.195312 C 578.6875 433.195312 632.789062 379.097656 632.789062 312.355469 C 632.789062 245.613281 578.6875 191.515625 511.949219 191.515625 C 471.761719 191.515625 436.167969 211.144531 414.199219 241.324219 L 374.949219 241.324219 C 400.648438 191.851562 452.347656 158.054688 511.949219 158.054688 C 597.164062 158.054688 666.246094 227.136719 666.246094 312.355469 C 666.246094 397.574219 597.167969 466.65625 511.949219 466.65625 L 0.632812 466.65625 L 0.632812 433.195312 L 511.949219 433.195312 " fill-opacity="1" fill-rule="nonzero"/></g><path fill="#102a43" d="M 517.175781 301.21875 L 561.542969 301.21875 L 561.542969 256.859375 L 517.175781 256.859375 L 517.175781 301.21875 " fill-opacity="1" fill-rule="nonzero"/><path fill="#102a43" d="M 462.351562 301.21875 L 506.71875 301.21875 L 506.71875 256.859375 L 462.351562 256.859375 L 462.351562 301.21875 " fill-opacity="1" fill-rule="nonzero"/><path fill="#102a43" d="M 517.175781 356.050781 L 561.542969 356.050781 L 561.542969 311.679688 L 517.175781 311.679688 L 517.175781 356.050781 " fill-opacity="1" fill-rule="nonzero"/><path fill="#102a43" d="M 462.351562 356.050781 L 506.71875 356.050781 L 506.71875 311.679688 L 462.351562 311.679688 L 462.351562 356.050781 " fill-opacity="1" fill-rule="nonzero"/><g clip-path="url(#cc0e2575cd)"><path fill="#22c55e" d="M 369.996094 147.367188 L 369.996094 81.378906 L 407.617188 81.378906 L 407.617188 108.3125 L 511.949219 -0.00390625 L 744.398438 241.324219 L 680.53125 241.324219 L 511.949219 66.304688 L 343.363281 241.324219 L 279.496094 241.324219 L 369.996094 147.367188 " fill-opacity="1" fill-rule="nonzero"/></g></g></g></g><g transform="matrix(1, 0, 0, 1, 58, 212)"><g clip-path="url(#9d9c1b1931)"><g fill="#102a43" fill-opacity="1"><g transform="translate(1.052938, 159.58365)"><g><path d="M 52.796875 -88.90625 C 64.460938 -88.90625 73.285156 -86.070312 79.265625 -80.40625 C 85.242188 -74.75 88.234375 -66.359375 88.234375 -55.234375 L 88.234375 0 L 65.03125 0 L 64.875 -57.171875 C 64.875 -61.765625 63.882812 -65.1875 61.90625 -67.4375 C 59.9375 -69.6875 56.925781 -70.8125 52.875 -70.8125 L 41.375 -70.8125 C 40.632812 -68.09375 40.050781 -65.101562 39.625 -61.84375 C 39.207031 -58.582031 39 -55.492188 39 -52.578125 L 39 -27.140625 C 39 -21.160156 37.9375 -16.039062 35.8125 -11.78125 C 33.6875 -7.53125 30.597656 -4.28125 26.546875 -2.03125 C 22.492188 0.207031 17.648438 1.328125 12.015625 1.328125 C 8.554688 1.328125 4.796875 0.984375 0.734375 0.296875 L 0.734375 -17.640625 C 2.910156 -17.546875 4.546875 -17.5 5.640625 -17.5 C 12.804688 -17.5 16.390625 -21.304688 16.390625 -28.921875 L 16.390625 -50.5 C 16.390625 -53.757812 16.820312 -57.304688 17.6875 -61.140625 C 18.550781 -64.972656 19.796875 -68.195312 21.421875 -70.8125 L 7.5625 -70.8125 L 7.5625 -88.90625 Z M 52.796875 -88.90625 "/></g></g></g><g fill="#102a43" fill-opacity="1"><g transform="translate(91.559229, 159.58365)"><g><path d="M 13.421875 -70.8125 L 5.640625 -70.8125 L 5.640625 -88.90625 L 36.703125 -88.90625 L 36.703125 0 L 13.421875 0 Z M 13.421875 -70.8125 "/></g></g></g><g fill="#102a43" fill-opacity="1"><g transform="translate(132.756069, 159.58365)"><g><path d="M 69.703125 -37.453125 L 95.65625 0 L 69.703125 0 L 36.625 -47.671875 C 34.945312 -45.648438 34.109375 -42.910156 34.109375 -39.453125 L 34.109375 0 L 11.640625 0 L 11.640625 -29.4375 C 11.640625 -37.644531 12.898438 -44.234375 15.421875 -49.203125 C 17.941406 -54.171875 22.019531 -57.988281 27.65625 -60.65625 L 8.015625 -88.90625 L 34.03125 -88.90625 L 55.46875 -57.984375 L 70.4375 -88.90625 L 96.546875 -88.90625 Z M 69.703125 -37.453125 "/></g></g></g><g fill="#102a43" fill-opacity="1"><g transform="translate(227.192287, 159.58365)"><g><path d="M 52.796875 -88.90625 C 64.460938 -88.90625 73.285156 -86.070312 79.265625 -80.40625 C 85.242188 -74.75 88.234375 -66.359375 88.234375 -55.234375 L 88.234375 0 L 65.03125 0 L 64.875 -57.171875 C 64.875 -61.765625 63.882812 -65.1875 61.90625 -67.4375 C 59.9375 -69.6875 56.925781 -70.8125 52.875 -70.8125 L 41.375 -70.8125 C 40.632812 -68.09375 40.050781 -65.101562 39.625 -61.84375 C 39.207031 -58.582031 39 -55.492188 39 -52.578125 L 39 -27.140625 C 39 -21.160156 37.9375 -16.039062 35.8125 -11.78125 C 33.6875 -7.53125 30.597656 -4.28125 26.546875 -2.03125 C 22.492188 0.207031 17.648438 1.328125 12.015625 1.328125 C 8.554688 1.328125 4.796875 0.984375 0.734375 0.296875 L 0.734375 -17.640625 C 2.910156 -17.546875 4.546875 -17.5 5.640625 -17.5 C 12.804688 -17.5 16.390625 -21.304688 16.390625 -28.921875 L 16.390625 -50.5 C 16.390625 -53.757812 16.820312 -57.304688 17.6875 -61.140625 C 18.550781 -64.972656 19.796875 -68.195312 21.421875 -70.8125 L 7.5625 -70.8125 L 7.5625 -88.90625 Z M 52.796875 -88.90625 "/></g></g></g><g fill="#102a43" fill-opacity="1"><g transform="translate(317.698578, 159.58365)"><g><path d="M 21.421875 1.484375 C 18.609375 1.484375 15.941406 1.320312 13.421875 1 C 10.898438 0.675781 7.910156 0.144531 4.453125 -0.59375 L 4.515625 -18.09375 C 7.828125 -17.59375 11.414062 -17.34375 15.28125 -17.34375 C 18.6875 -17.34375 21.21875 -18.28125 22.875 -20.15625 C 24.53125 -22.039062 25.359375 -24.9375 25.359375 -28.84375 L 25.359375 -70.8125 L 9.640625 -70.8125 L 9.640625 -88.90625 L 48.640625 -88.90625 L 48.640625 -26.984375 C 48.640625 -21.003906 47.5625 -15.890625 45.40625 -11.640625 C 43.257812 -7.390625 40.144531 -4.140625 36.0625 -1.890625 C 31.988281 0.359375 27.109375 1.484375 21.421875 1.484375 Z M 21.421875 1.484375 "/></g></g></g><g fill="#102a43" fill-opacity="1"><g transform="translate(370.833495, 159.58365)"><g><path d="M 30.625 1.40625 C 23.113281 1.40625 14.488281 0.242188 4.75 -2.078125 L 8.3125 -18.984375 C 15.769531 -17.347656 22.171875 -16.53125 27.515625 -16.53125 C 34.722656 -16.582031 40.03125 -18.175781 43.4375 -21.3125 C 46.851562 -24.457031 48.5625 -29.164062 48.5625 -35.4375 L 48.5625 -70.8125 L 8.15625 -70.8125 L 8.15625 -88.90625 L 71.78125 -88.90625 L 71.78125 -39.453125 C 71.78125 -25.503906 68.171875 -15.207031 60.953125 -8.5625 C 53.734375 -1.914062 43.625 1.40625 30.625 1.40625 Z M 30.625 1.40625 "/></g></g></g><g fill="#102a43" fill-opacity="1"><g transform="translate(447.177222, 159.58365)"><g><path d="M 34.546875 -21.421875 C 38.847656 -19.597656 43.429688 -18.140625 48.296875 -17.046875 C 53.171875 -15.960938 57.6875 -15.421875 61.84375 -15.421875 C 72.570312 -15.421875 81.097656 -17.707031 87.421875 -22.28125 C 93.753906 -26.851562 96.921875 -33.757812 96.921875 -43 L 96.921875 -88.90625 L 119.375 -88.90625 L 119.375 -40.40625 C 119.375 -31.0625 116.863281 -23.148438 111.84375 -16.671875 C 106.832031 -10.203125 100.0625 -5.347656 91.53125 -2.109375 C 83.007812 1.128906 73.4375 2.75 62.8125 2.75 C 54.550781 2.75 46.007812 1.757812 37.1875 -0.21875 C 28.363281 -2.195312 20 -5.085938 12.09375 -8.890625 L 12.09375 -88.90625 L 34.546875 -88.90625 Z M 51.09375 -28.328125 C 52.03125 -30.148438 52.757812 -32.804688 53.28125 -36.296875 C 53.800781 -39.785156 54.0625 -43.578125 54.0625 -47.671875 L 54.0625 -88.90625 L 76.59375 -88.90625 L 76.59375 -52.578125 C 76.59375 -47.535156 76.007812 -42.828125 74.84375 -38.453125 C 73.6875 -34.078125 72.070312 -30.675781 70 -28.25 Z M 51.09375 -28.328125 "/></g></g></g><g fill="#102a43" fill-opacity="1"><g transform="translate(571.124962, 159.58365)"><g><path d="M 17.203125 -50.046875 C 17.691406 -54.054688 18.703125 -57.863281 20.234375 -61.46875 C 21.773438 -65.082031 23.582031 -67.925781 25.65625 -70 C 26.101562 -70.445312 26.445312 -70.71875 26.6875 -70.8125 L 26.625 -71.1875 C 24.738281 -70.882812 22.4375 -70.347656 19.71875 -69.578125 C 17 -68.816406 14.675781 -68.039062 12.75 -67.25 L 7.78125 -84.15625 C 13.570312 -86.238281 20.296875 -87.929688 27.953125 -89.234375 C 35.617188 -90.546875 42.863281 -91.203125 49.6875 -91.203125 C 63.175781 -91.203125 73.441406 -87.738281 80.484375 -80.8125 C 87.535156 -73.894531 91.082031 -63.738281 91.125 -50.34375 L 91.125 0 L 52.203125 0 L 52.203125 -18.09375 L 67.84375 -18.09375 L 67.765625 -53.46875 C 67.765625 -59.394531 66.566406 -64 64.171875 -67.28125 C 61.773438 -70.570312 58.40625 -72.21875 54.0625 -72.21875 C 49.90625 -72.21875 46.640625 -70.585938 44.265625 -67.328125 C 41.890625 -64.066406 40.382812 -59.296875 39.75 -53.015625 L 34.484375 0 L 11.5 0 Z M 17.203125 -50.046875 "/></g></g></g><g fill="#102a43" fill-opacity="1"><g transform="translate(664.523087, 159.58365)"><g/></g></g><g fill="#102a43" fill-opacity="1"><g transform="translate(694.745791, 159.58365)"><g><path d="M 59.609375 -38.703125 C 61.296875 -36.179688 62.519531 -33.632812 63.28125 -31.0625 C 64.050781 -28.5 64.4375 -25.632812 64.4375 -22.46875 L 64.4375 30.84375 L 42.265625 30.84375 L 42.265625 -24.984375 C 42.265625 -26.515625 42.050781 -27.945312 41.625 -29.28125 C 41.207031 -30.625 40.53125 -32.007812 39.59375 -33.4375 L 2.15625 -88.90625 L 28.03125 -88.90625 L 46.046875 -59.390625 L 59.765625 -88.90625 L 85.796875 -88.90625 Z M 59.609375 -38.703125 "/></g></g></g><g fill="#102a43" fill-opacity="1"><g transform="translate(775.167744, 159.58365)"><g><path d="M 83.046875 -88.90625 L 83.046875 -37.96875 C 83.046875 -29.363281 81.238281 -22.054688 77.625 -16.046875 C 74.019531 -10.046875 68.96875 -5.507812 62.46875 -2.4375 C 55.96875 0.625 48.394531 2.15625 39.75 2.15625 C 27.832031 2.15625 16.066406 -0.0195312 4.453125 -4.375 L 9.265625 -21.359375 C 16.390625 -18.585938 23.140625 -16.734375 29.515625 -15.796875 C 27.734375 -17.472656 26.1875 -19.398438 24.875 -21.578125 C 23.5625 -23.753906 22.632812 -26.050781 22.09375 -28.46875 L 8.375 -88.90625 L 31.8125 -88.90625 L 44.859375 -26.171875 C 45.703125 -22.515625 46.691406 -19.550781 47.828125 -17.28125 C 51.679688 -18.863281 54.632812 -21.296875 56.6875 -24.578125 C 58.738281 -27.867188 59.765625 -31.9375 59.765625 -36.78125 L 59.765625 -88.90625 Z M 83.046875 -88.90625 "/></g></g></g><g fill="#102a43" fill-opacity="1"><g transform="translate(862.708006, 159.58365)"><g><path d="M 13.421875 -70.8125 L 5.640625 -70.8125 L 5.640625 -88.90625 L 36.703125 -88.90625 L 36.703125 0 L 13.421875 0 Z M 13.421875 -70.8125 "/></g></g></g><g fill="#102a43" fill-opacity="1"><g transform="translate(903.904892, 159.58365)"><g><path d="M 17.71875 -70.8125 L 3.78125 -70.8125 L 3.78125 -88.90625 L 41 -88.90625 L 41 -38.1875 L 17.71875 -38.1875 Z M 17.71875 -70.8125 "/></g></g></g></g></g><g fill="#102a43" fill-opacity="1"><g transform="translate(350.087239, 466.926821)"><g><path d="M 25.53125 -24.375 L 15.828125 0 L 7.71875 0 L 17.296875 -23.328125 L 1.59375 -23.328125 L 1.59375 -37.53125 L 9.265625 -37.53125 L 9.265625 -29.296875 L 25.53125 -29.296875 Z M 25.53125 -24.375 "/></g></g></g><g fill="#102a43" fill-opacity="1"><g transform="translate(377.32126, 466.926821)"><g><path d="M 9.359375 -33.65625 C 9.359375 -32.09375 8.921875 -30.460938 8.046875 -28.765625 C 7.179688 -27.066406 6.128906 -25.671875 4.890625 -24.578125 L 1.484375 -26.53125 C 2.171875 -27.65625 2.703125 -28.773438 3.078125 -29.890625 C 3.453125 -31.003906 3.640625 -32.257812 3.640625 -33.65625 L 3.640625 -37.53125 L 9.359375 -37.53125 Z M 9.359375 -33.65625 "/></g></g></g><g fill="#102a43" fill-opacity="1"><g transform="translate(388.99647, 466.926821)"><g><path d="M 19.734375 -12.921875 L 26.28125 -3.46875 L 26.28125 0 L 3.125 0 L 3.125 -5.984375 L 16.4375 -5.984375 L 0.703125 -29.296875 L 9.234375 -29.296875 L 15.25 -19.71875 L 19.6875 -29.296875 L 28.265625 -29.296875 Z M 19.734375 -12.921875 "/></g></g></g><g fill="#102a43" fill-opacity="1"><g transform="translate(418.453172, 466.926821)"><g><path d="M 7.0625 0.484375 C 6.132812 0.484375 5.253906 0.429688 4.421875 0.328125 C 3.585938 0.222656 2.601562 0.046875 1.46875 -0.203125 L 1.484375 -5.953125 C 2.578125 -5.796875 3.757812 -5.71875 5.03125 -5.71875 C 6.15625 -5.71875 6.988281 -6.023438 7.53125 -6.640625 C 8.082031 -7.265625 8.359375 -8.21875 8.359375 -9.5 L 8.359375 -23.328125 L 3.171875 -23.328125 L 3.171875 -29.296875 L 16.03125 -29.296875 L 16.03125 -8.890625 C 16.03125 -6.921875 15.675781 -5.234375 14.96875 -3.828125 C 14.257812 -2.429688 13.234375 -1.363281 11.890625 -0.625 C 10.546875 0.113281 8.9375 0.484375 7.0625 0.484375 Z M 7.0625 0.484375 "/></g></g></g><g fill="#102a43" fill-opacity="1"><g transform="translate(438.457355, 466.926821)"><g><path d="M 22.96875 -12.34375 L 31.515625 0 L 22.96875 0 L 12.0625 -15.703125 C 11.507812 -15.035156 11.234375 -14.132812 11.234375 -13 L 11.234375 0 L 3.828125 0 L 3.828125 -9.703125 C 3.828125 -12.398438 4.242188 -14.566406 5.078125 -16.203125 C 5.910156 -17.835938 7.253906 -19.097656 9.109375 -19.984375 L 2.640625 -29.296875 L 11.21875 -29.296875 L 18.265625 -19.109375 L 23.203125 -29.296875 L 31.8125 -29.296875 Z M 22.96875 -12.34375 "/></g></g></g><g fill="#102a43" fill-opacity="1"><g transform="translate(472.066328, 466.926821)"><g/></g></g><g fill="#102a43" fill-opacity="1"><g transform="translate(484.523142, 466.926821)"><g><path d="M 5.84375 -23.328125 L 1.25 -23.328125 L 1.25 -29.296875 L 13.515625 -29.296875 L 13.515625 -12.578125 L 5.84375 -12.578125 Z M 5.84375 -23.328125 "/></g></g></g><g fill="#102a43" fill-opacity="1"><g transform="translate(501.718431, 466.926821)"><g><path d="M 17.390625 -29.296875 C 21.234375 -29.296875 24.140625 -28.363281 26.109375 -26.5 C 28.085938 -24.632812 29.078125 -21.867188 29.078125 -18.203125 L 29.078125 0 L 21.421875 0 L 21.375 -18.828125 C 21.375 -20.347656 21.046875 -21.476562 20.390625 -22.21875 C 19.742188 -22.957031 18.753906 -23.328125 17.421875 -23.328125 L 13.625 -23.328125 C 13.382812 -22.429688 13.191406 -21.445312 13.046875 -20.375 C 12.910156 -19.300781 12.84375 -18.285156 12.84375 -17.328125 L 12.84375 -8.9375 C 12.84375 -6.96875 12.492188 -5.28125 11.796875 -3.875 C 11.097656 -2.476562 10.082031 -1.410156 8.75 -0.671875 C 7.414062 0.0664062 5.816406 0.4375 3.953125 0.4375 C 2.816406 0.4375 1.582031 0.320312 0.25 0.09375 L 0.25 -5.8125 C 0.957031 -5.78125 1.492188 -5.765625 1.859375 -5.765625 C 4.222656 -5.765625 5.40625 -7.019531 5.40625 -9.53125 L 5.40625 -16.640625 C 5.40625 -17.710938 5.546875 -18.878906 5.828125 -20.140625 C 6.109375 -21.398438 6.519531 -22.460938 7.0625 -23.328125 L 2.484375 -23.328125 L 2.484375 -29.296875 Z M 17.390625 -29.296875 "/></g></g></g><g fill="#102a43" fill-opacity="1"><g transform="translate(534.032878, 466.926821)"><g><path d="M 5.84375 -23.328125 L 1.25 -23.328125 L 1.25 -29.296875 L 13.515625 -29.296875 L 13.515625 -12.578125 L 5.84375 -12.578125 Z M 5.84375 -23.328125 "/></g></g></g><g fill="#102a43" fill-opacity="1"><g transform="translate(551.228167, 466.926821)"><g><path d="M 22.96875 -12.34375 L 31.515625 0 L 22.96875 0 L 12.0625 -15.703125 C 11.507812 -15.035156 11.234375 -14.132812 11.234375 -13 L 11.234375 0 L 3.828125 0 L 3.828125 -9.703125 C 3.828125 -12.398438 4.242188 -14.566406 5.078125 -16.203125 C 5.910156 -17.835938 7.253906 -19.097656 9.109375 -19.984375 L 2.640625 -29.296875 L 11.21875 -29.296875 L 18.265625 -19.109375 L 23.203125 -29.296875 L 31.8125 -29.296875 Z M 22.96875 -12.34375 "/></g></g></g></svg>